<?xml version="1.0" encoding="UTF-8" standalone="no"?>
<!DOCTYPE svg PUBLIC "-//W3C//DTD SVG 1.1//EN"
 "http://www.w3.org/Graphics/SVG/1.1/DTD/svg11.dtd">
<!-- Generated by graphviz version 2.38.0 (20140413.2041)
 -->
<!-- Title: %3 Pages: 1 -->
<svg width="268pt" height="332pt"
 viewBox="0.00 0.00 268.08 332.00" xmlns="http://www.w3.org/2000/svg" xmlns:xlink="http://www.w3.org/1999/xlink">
<g id="graph0" class="graph" transform="scale(1 1) rotate(0) translate(4 328)">
<title>%3</title>
<polygon fill="white" stroke="none" points="-4,4 -4,-328 264.082,-328 264.082,4 -4,4"/>
<!-- A -->
<g id="node1" class="node"><title>A</title>
<ellipse fill="none" stroke="black" cx="69.0818" cy="-306" rx="27" ry="18"/>
<text text-anchor="middle" x="69.0818" y="-302.3" font-family="Times New Roman,serif" font-size="14.00">A</text>
</g>
<!-- A&#45;&#45;A -->
<g id="edge6" class="edge"><title>A&#45;&#45;A</title>
<path fill="none" stroke="black" d="M88.9768,-318.432C101.77,-321.675 114.082,-317.531 114.082,-306 114.082,-294.469 101.77,-290.325 88.9768,-293.568"/>
</g>
<!-- B -->
<g id="node2" class="node"><title>B</title>
<ellipse fill="none" stroke="black" cx="69.0818" cy="-234" rx="27" ry="18"/>
<text text-anchor="middle" x="69.0818" y="-230.3" font-family="Times New Roman,serif" font-size="14.00">B</text>
</g>
<!-- A&#45;&#45;B -->
<g id="edge1" class="edge"><title>A&#45;&#45;B</title>
<path fill="none" stroke="black" d="M57.6417,-289.465C54.8917,-277.865 54.8951,-262.082 57.652,-250.492"/>
</g>
<!-- A&#45;&#45;B -->
<g id="edge7" class="edge"><title>A&#45;&#45;B</title>
<path fill="none" stroke="black" d="M69.0818,-287.697C69.0818,-276.846 69.0818,-262.917 69.0818,-252.104"/>
</g>
<!-- C -->
<g id="node3" class="node"><title>C</title>
<ellipse fill="none" stroke="black" cx="86.0818" cy="-18" rx="27" ry="18"/>
<text text-anchor="middle" x="86.0818" y="-14.3" font-family="Times New Roman,serif" font-size="14.00">C</text>
</g>
<!-- A&#45;&#45;C -->
<g id="edge2" class="edge"><title>A&#45;&#45;C</title>
<path fill="none" stroke="black" d="M46.7887,-295.777C33.3876,-285.873 20.3782,-269.224 15.0818,-252 3.51519,-214.386 -14.129,-162.217 22.0818,-72 29.6154,-53.2305 46.7205,-36.5177 62.7241,-27.0864"/>
</g>
<!-- A&#45;&#45;C -->
<g id="edge8" class="edge"><title>A&#45;&#45;C</title>
<path fill="none" stroke="black" d="M55.3314,-290.069C47.121,-280.1 37.4628,-266.247 33.0818,-252 21.5152,-214.386 3.87099,-162.217 40.0818,-72 46.3447,-56.3964 59.2224,-42.2143 69.7635,-32.4553"/>
</g>
<!-- D -->
<g id="node4" class="node"><title>D</title>
<ellipse fill="none" stroke="black" cx="86.0818" cy="-90" rx="27" ry="18"/>
<text text-anchor="middle" x="86.0818" y="-86.3" font-family="Times New Roman,serif" font-size="14.00">D</text>
</g>
<!-- A&#45;&#45;D -->
<g id="edge9" class="edge"><title>A&#45;&#45;D</title>
<path fill="none" stroke="black" d="M83.3265,-290.128C94.0748,-280.754 107.575,-267.504 114.082,-252 135.059,-202.018 104.895,-138.083 91.2906,-108.041"/>
</g>
<!-- E -->
<g id="node5" class="node"><title>E</title>
<ellipse fill="none" stroke="black" cx="215.082" cy="-162" rx="27" ry="18"/>
<text text-anchor="middle" x="215.082" y="-158.3" font-family="Times New Roman,serif" font-size="14.00">E</text>
</g>
<!-- A&#45;&#45;E -->
<g id="edge10" class="edge"><title>A&#45;&#45;E</title>
<path fill="none" stroke="black" d="M91.784,-295.936C113.14,-287.676 144.381,-273.454 165.082,-252 185.281,-231.065 196.789,-198.388 204.886,-178.996"/>
</g>
<!-- B&#45;&#45;A -->
<g id="edge11" class="edge"><title>B&#45;&#45;A</title>
<path fill="none" stroke="black" d="M80.5115,-250.492C83.2684,-262.082 83.2719,-277.865 80.5218,-289.465"/>
</g>
<!-- B&#45;&#45;B -->
<g id="edge12" class="edge"><title>B&#45;&#45;B</title>
<path fill="none" stroke="black" d="M88.9768,-246.432C101.77,-249.675 114.082,-245.531 114.082,-234 114.082,-222.469 101.77,-218.325 88.9768,-221.568"/>
</g>
<!-- B&#45;&#45;C -->
<g id="edge13" class="edge"><title>B&#45;&#45;C</title>
<path fill="none" stroke="black" d="M57.9318,-217.529C43.8276,-188.389 25.1984,-123.652 41.0818,-72 45.8551,-56.4773 56.8931,-41.4216 67.167,-31.3491"/>
</g>
<!-- B&#45;&#45;D -->
<g id="edge3" class="edge"><title>B&#45;&#45;D</title>
<path fill="none" stroke="black" d="M62.0165,-216.433C59.3209,-188.778 66.0002,-133.589 75.3822,-106.595"/>
</g>
<!-- B&#45;&#45;D -->
<g id="edge14" class="edge"><title>B&#45;&#45;D</title>
<path fill="none" stroke="black" d="M71.1324,-215.871C74.3998,-188.578 80.7519,-135.52 84.0239,-108.189"/>
</g>
<!-- B&#45;&#45;E -->
<g id="edge15" class="edge"><title>B&#45;&#45;E</title>
<path fill="none" stroke="black" d="M88.3271,-221.284C115.15,-207.35 163.177,-184.406 191.919,-171.865"/>
</g>
<!-- C&#45;&#45;A -->
<g id="edge16" class="edge"><title>C&#45;&#45;A</title>
<path fill="none" stroke="black" d="M82.0686,-36.0234C74.3252,-45.522 63.6185,-58.2055 58.0818,-72 21.871,-162.217 39.5152,-214.386 51.0818,-252 55.1358,-265.184 63.7088,-278.03 69.4263,-287.774"/>
</g>
<!-- C&#45;&#45;B -->
<g id="edge17" class="edge"><title>C&#45;&#45;B</title>
<path fill="none" stroke="black" d="M78.7737,-35.7574C71.9866,-45.5552 63.2012,-58.6037 59.0818,-72 43.5293,-122.576 61.0663,-185.697 67.9157,-215.661"/>
</g>
<!-- C&#45;&#45;C -->
<g id="edge18" class="edge"><title>C&#45;&#45;C</title>
<path fill="none" stroke="black" d="M105.977,-30.4321C118.77,-33.6753 131.082,-29.5313 131.082,-18 131.082,-6.46875 118.77,-2.32471 105.977,-5.56787"/>
</g>
<!-- C&#45;&#45;D -->
<g id="edge4" class="edge"><title>C&#45;&#45;D</title>
<path fill="none" stroke="black" d="M86.0818,-36.1043C86.0818,-46.9167 86.0818,-60.8463 86.0818,-71.6966"/>
</g>
<!-- C&#45;&#45;D -->
<g id="edge19" class="edge"><title>C&#45;&#45;D</title>
<path fill="none" stroke="black" d="M97.5115,-34.4918C100.268,-46.0816 100.272,-61.8645 97.5218,-73.4647"/>
</g>
<!-- C&#45;&#45;E -->
<g id="edge5" class="edge"><title>C&#45;&#45;E</title>
<path fill="none" stroke="black" d="M101.126,-33.0312C112.174,-43.5091 127.401,-58.3198 140.082,-72 163.296,-97.0443 188.546,-127.809 203.026,-145.827"/>
</g>
<!-- C&#45;&#45;E -->
<g id="edge20" class="edge"><title>C&#45;&#45;E</title>
<path fill="none" stroke="black" d="M108.72,-27.9298C124.733,-38.2591 143.169,-55.9113 158.082,-72 180.472,-96.1551 204.755,-125.632 214.798,-143.861"/>
</g>
<!-- D&#45;&#45;A -->
<g id="edge21" class="edge"><title>D&#45;&#45;A</title>
<path fill="none" stroke="black" d="M100.413,-105.728C121.263,-134.691 153.614,-200.696 132.082,-252 124.253,-270.653 106.302,-286.044 91.2806,-295.347"/>
</g>
<!-- D&#45;&#45;B -->
<g id="edge22" class="edge"><title>D&#45;&#45;B</title>
<path fill="none" stroke="black" d="M93.1587,-107.687C95.8186,-135.332 89.1735,-190.254 79.8312,-217.261"/>
</g>
<!-- D&#45;&#45;C -->
<g id="edge23" class="edge"><title>D&#45;&#45;C</title>
<path fill="none" stroke="black" d="M74.6417,-73.4647C71.8917,-61.8645 71.8951,-46.0816 74.652,-34.4918"/>
</g>
<!-- D&#45;&#45;D -->
<g id="edge24" class="edge"><title>D&#45;&#45;D</title>
<path fill="none" stroke="black" d="M105.977,-102.432C118.77,-105.675 131.082,-101.531 131.082,-90 131.082,-78.4688 118.77,-74.3247 105.977,-77.5679"/>
</g>
<!-- D&#45;&#45;E -->
<g id="edge25" class="edge"><title>D&#45;&#45;E</title>
<path fill="none" stroke="black" d="M108.274,-100.443C133.479,-112.81 173.697,-134.534 197.061,-148.324"/>
</g>
<!-- E&#45;&#45;A -->
<g id="edge26" class="edge"><title>E&#45;&#45;A</title>
<path fill="none" stroke="black" d="M217.37,-180.029C214.382,-199.531 202.927,-231.433 183.082,-252 158.836,-277.128 120.132,-292.334 94.4208,-299.662"/>
</g>
<!-- E&#45;&#45;B -->
<g id="edge27" class="edge"><title>E&#45;&#45;B</title>
<path fill="none" stroke="black" d="M195.52,-174.881C168.535,-188.882 120.513,-211.815 91.9214,-224.276"/>
</g>
<!-- E&#45;&#45;C -->
<g id="edge28" class="edge"><title>E&#45;&#45;C</title>
<path fill="none" stroke="black" d="M194.639,-149.75C174.442,-132.576 147.082,-98.9708 122.082,-72 110.651,-59.6685 97.1515,-46.4185 88.7591,-36.2514"/>
</g>
<!-- E&#45;&#45;D -->
<g id="edge29" class="edge"><title>E&#45;&#45;D</title>
<path fill="none" stroke="black" d="M192.896,-151.559C167.642,-139.17 127.315,-117.384 103.97,-103.598"/>
</g>
<!-- E&#45;&#45;E -->
<g id="edge30" class="edge"><title>E&#45;&#45;E</title>
<path fill="none" stroke="black" d="M234.977,-174.432C247.77,-177.675 260.082,-173.531 260.082,-162 260.082,-150.469 247.77,-146.325 234.977,-149.568"/>
</g>
</g>
</svg>
