<?xml version="1.0" encoding="UTF-8" standalone="no"?>
<!DOCTYPE svg PUBLIC "-//W3C//DTD SVG 1.1//EN"
 "http://www.w3.org/Graphics/SVG/1.1/DTD/svg11.dtd">
<!-- Generated by graphviz version 2.38.0 (20140413.2041)
 -->
<!-- Title: %3 Pages: 1 -->
<svg width="206pt" height="188pt"
 viewBox="0.00 0.00 206.00 188.00" xmlns="http://www.w3.org/2000/svg" xmlns:xlink="http://www.w3.org/1999/xlink">
<g id="graph0" class="graph" transform="scale(1 1) rotate(0) translate(4 184)">
<title>%3</title>
<polygon fill="white" stroke="none" points="-4,4 -4,-184 202,-184 202,4 -4,4"/>
<!-- A -->
<g id="node1" class="node"><title>A</title>
<ellipse fill="none" stroke="black" cx="64" cy="-162" rx="27" ry="18"/>
<text text-anchor="middle" x="64" y="-158.3" font-family="Times New Roman,serif" font-size="14.00">A</text>
</g>
<!-- B -->
<g id="node2" class="node"><title>B</title>
<ellipse fill="none" stroke="black" cx="94" cy="-90" rx="27" ry="18"/>
<text text-anchor="middle" x="94" y="-86.3" font-family="Times New Roman,serif" font-size="14.00">B</text>
</g>
<!-- A&#45;&#45;B -->
<g id="edge1" class="edge"><title>A&#45;&#45;B</title>
<path fill="none" stroke="black" d="M71.1096,-144.411C75.8918,-133.252 82.1699,-118.604 86.9415,-107.47"/>
</g>
<!-- C -->
<g id="node3" class="node"><title>C</title>
<ellipse fill="none" stroke="black" cx="27" cy="-18" rx="27" ry="18"/>
<text text-anchor="middle" x="27" y="-14.3" font-family="Times New Roman,serif" font-size="14.00">C</text>
</g>
<!-- A&#45;&#45;C -->
<g id="edge2" class="edge"><title>A&#45;&#45;C</title>
<path fill="none" stroke="black" d="M59.6103,-144.153C52.4893,-116.824 38.5013,-63.14 31.384,-35.825"/>
</g>
<!-- B&#45;&#45;C -->
<g id="edge3" class="edge"><title>B&#45;&#45;C</title>
<path fill="none" stroke="black" d="M80.1176,-74.496C68.6187,-62.4822 52.3586,-45.4941 40.8647,-33.4855"/>
</g>
<!-- D -->
<g id="node4" class="node"><title>D</title>
<ellipse fill="none" stroke="black" cx="99" cy="-18" rx="27" ry="18"/>
<text text-anchor="middle" x="99" y="-14.3" font-family="Times New Roman,serif" font-size="14.00">D</text>
</g>
<!-- B&#45;&#45;D -->
<g id="edge4" class="edge"><title>B&#45;&#45;D</title>
<path fill="none" stroke="black" d="M95.236,-71.6966C96.011,-60.8463 97.0059,-46.9167 97.7783,-36.1043"/>
</g>
<!-- E -->
<g id="node5" class="node"><title>E</title>
<ellipse fill="none" stroke="black" cx="171" cy="-18" rx="27" ry="18"/>
<text text-anchor="middle" x="171" y="-14.3" font-family="Times New Roman,serif" font-size="14.00">E</text>
</g>
<!-- B&#45;&#45;E -->
<g id="edge5" class="edge"><title>B&#45;&#45;E</title>
<path fill="none" stroke="black" d="M109.582,-74.8345C123.029,-62.6099 142.341,-45.0538 155.704,-32.9056"/>
</g>
</g>
</svg>
