<?xml version="1.0" encoding="UTF-8" standalone="no"?>
<!DOCTYPE svg PUBLIC "-//W3C//DTD SVG 1.1//EN"
 "http://www.w3.org/Graphics/SVG/1.1/DTD/svg11.dtd">
<!-- Generated by graphviz version 2.38.0 (20140413.2041)
 -->
<!-- Title: %3 Pages: 1 -->
<svg width="201pt" height="218pt"
 viewBox="0.00 0.00 201.00 218.00" xmlns="http://www.w3.org/2000/svg" xmlns:xlink="http://www.w3.org/1999/xlink">
<g id="graph0" class="graph" transform="scale(1 1) rotate(0) translate(4 214)">
<title>%3</title>
<polygon fill="white" stroke="none" points="-4,4 -4,-214 197,-214 197,4 -4,4"/>
<!-- A -->
<g id="node1" class="node"><title>A</title>
<ellipse fill="none" stroke="black" cx="93" cy="-192" rx="32.4942" ry="18"/>
<text text-anchor="middle" x="93" y="-188.3" font-family="Times New Roman,serif" font-size="14.00">Apple</text>
</g>
<!-- B -->
<g id="node2" class="node"><title>B</title>
<ellipse fill="none" stroke="black" cx="49" cy="-105" rx="27" ry="18"/>
<text text-anchor="middle" x="49" y="-101.3" font-family="Times New Roman,serif" font-size="14.00">B</text>
</g>
<!-- A&#45;&#45;B -->
<g id="edge1" class="edge"><title>A&#45;&#45;B</title>
<path fill="none" stroke="black" d="M70.6186,-178.478C62.614,-172.747 54.4729,-165.17 50,-156 45.052,-145.855 44.8714,-133.12 45.8923,-123.042"/>
<text text-anchor="middle" x="86.5" y="-144.8" font-family="Times New Roman,serif" font-size="14.00">Summer fruit</text>
</g>
<!-- C -->
<g id="node3" class="node"><title>C</title>
<ellipse fill="none" stroke="black" cx="118" cy="-18" rx="27" ry="18"/>
<text text-anchor="middle" x="118" y="-14.3" font-family="Times New Roman,serif" font-size="14.00">C</text>
</g>
<!-- A&#45;&#45;C -->
<g id="edge2" class="edge"><title>A&#45;&#45;C</title>
<path fill="none" stroke="black" d="M109.75,-176.211C115.038,-170.488 120.223,-163.506 123,-156 138.111,-115.15 129.063,-62.6957 122.674,-36.1018"/>
<text text-anchor="middle" x="162" y="-101.3" font-family="Times New Roman,serif" font-size="14.00">Sour flaver</text>
</g>
<!-- B&#45;&#45;C -->
<g id="edge3" class="edge"><title>B&#45;&#45;C</title>
<path fill="none" stroke="black" d="M49.847,-86.8839C51.1042,-76.532 54.0783,-63.5366 61,-54 69.5264,-42.2525 83.3161,-33.6325 95.1963,-27.8866"/>
<text text-anchor="middle" x="92" y="-57.8" font-family="Times New Roman,serif" font-size="14.00">Yellow like</text>
</g>
<!-- D -->
<g id="node4" class="node"><title>D</title>
<ellipse fill="none" stroke="black" cx="27" cy="-18" rx="27" ry="18"/>
<text text-anchor="middle" x="27" y="-14.3" font-family="Times New Roman,serif" font-size="14.00">D</text>
</g>
<!-- B&#45;&#45;D -->
<g id="edge4" class="edge"><title>B&#45;&#45;D</title>
<path fill="none" stroke="black" d="M44.6535,-87.2067C40.8217,-72.4018 35.2644,-50.9304 31.4128,-36.0493"/>
</g>
</g>
</svg>
