<?xml version="1.0" encoding="UTF-8" standalone="no"?>
<!DOCTYPE svg PUBLIC "-//W3C//DTD SVG 1.1//EN"
 "http://www.w3.org/Graphics/SVG/1.1/DTD/svg11.dtd">
<!-- Generated by graphviz version 2.38.0 (20140413.2041)
 -->
<!-- Title: %3 Pages: 1 -->
<svg width="299pt" height="258pt"
 viewBox="0.00 0.00 299.00 258.00" xmlns="http://www.w3.org/2000/svg" xmlns:xlink="http://www.w3.org/1999/xlink">
<g id="graph0" class="graph" transform="scale(1 1) rotate(0) translate(4 254)">
<title>%3</title>
<polygon fill="#ffaaff" stroke="none" points="-4,4 -4,-254 295,-254 295,4 -4,4"/>
<text text-anchor="middle" x="145.5" y="-10.8" font-family="Times New Roman,serif" font-size="24.00" fill="#442200">我的圖形</text>
<!-- A -->
<g id="node1" class="node"><title>A</title>
<polygon fill="#66aaaa" stroke="white" points="143,-250 89,-250 89,-214 143,-214 143,-250"/>
<text text-anchor="middle" x="116" y="-228.3" font-family="Consolas" font-size="14.00" fill="#00ff00">Apple</text>
</g>
<!-- B -->
<g id="node2" class="node"><title>B</title>
<polygon fill="#66aaaa" stroke="white" points="77,-160 23,-160 23,-124 77,-124 77,-160"/>
<text text-anchor="middle" x="50" y="-138.3" font-family="Consolas" font-size="14.00" fill="#00ff00">B</text>
</g>
<!-- A&#45;&#45;B -->
<g id="edge1" class="edge"><title>A&#45;&#45;B</title>
<path fill="none" stroke="#004488" stroke-dasharray="1,5" d="M88.9129,-223.628C75.0374,-218.341 59.3447,-209.676 51,-196 44.5767,-185.473 44.6038,-171.445 46.0884,-160.466"/>
<text text-anchor="middle" x="110" y="-183.2" font-family="Courier,monospace" font-size="16.00" fill="#440088">Summer fruit</text>
</g>
<!-- C -->
<g id="node3" class="node"><title>C</title>
<polygon fill="#66aaaa" stroke="white" points="168,-70 114,-70 114,-34 168,-34 168,-70"/>
<text text-anchor="middle" x="141" y="-48.3" font-family="Consolas" font-size="14.00" fill="#00ff00">C</text>
</g>
<!-- A&#45;&#45;C -->
<g id="edge2" class="edge"><title>A&#45;&#45;C</title>
<path fill="none" stroke="#004488" stroke-dasharray="1,5" d="M143.003,-219.947C153.043,-214.355 163.358,-206.487 169,-196 191.742,-153.729 184.888,-133.294 169,-88 166.733,-81.5382 162.716,-75.3832 158.42,-70.0875"/>
<text text-anchor="middle" x="237" y="-138.2" font-family="Courier,monospace" font-size="16.00" fill="#440088">Sour flaver</text>
</g>
<!-- B&#45;&#45;C -->
<g id="edge3" class="edge"><title>B&#45;&#45;C</title>
<path fill="none" stroke="#004488" stroke-dasharray="1,5" d="M49.6777,-123.524C50.3473,-112.263 52.9486,-97.9256 61,-88 74.0839,-71.8703 96.0753,-62.9807 113.693,-58.2014"/>
<text text-anchor="middle" x="115" y="-93.2" font-family="Courier,monospace" font-size="16.00" fill="#440088">Yellow like</text>
</g>
<!-- D -->
<g id="node4" class="node"><title>D</title>
<polygon fill="#66aaaa" stroke="white" points="54,-70 0,-70 0,-34 54,-34 54,-70"/>
<text text-anchor="middle" x="27" y="-48.3" font-family="Consolas" font-size="14.00" fill="#00ff00">D</text>
</g>
<!-- B&#45;&#45;D -->
<g id="edge4" class="edge"><title>B&#45;&#45;D</title>
<path fill="none" stroke="#004488" stroke-dasharray="1,5" d="M45.4559,-123.614C41.3975,-108.086 35.4878,-85.4751 31.4564,-70.0504"/>
</g>
</g>
</svg>
